<svg version="1.1" xmlns="http://www.w3.org/2000/svg" xmlns:xlink="http://www.w3.org/1999/xlink" width="159.18978" height="348.66648" viewBox="0,0,159.18978,348.66648"><g transform="translate(-160.40511,-5.66676)"><g fill="#ffffff" stroke="none" stroke-miterlimit="10"><path d="M286.59489,210.69693c0,11.12129 -9.01503,20.13631 -20.13631,20.13631h-53.41716c-11.12095,0 -20.13631,-9.01503 -20.13631,-20.13631v-96.89368c0,-11.12095 9.01536,-20.13631 20.13631,-20.13631h53.41716c11.12129,0 20.13631,9.01536 20.13631,20.13631zM273.17069,210.69693c0,3.70709 -3.00501,6.7121 -6.7121,6.7121h-53.41716c-3.70696,0 -6.7121,-3.00501 -6.7121,-6.7121v-96.89368c0,-3.70696 3.00514,-6.7121 6.7121,-6.7121h53.41716c3.70709,0 6.7121,3.00514 6.7121,6.7121z" fill-rule="evenodd" stroke-width="1"/><path d="M284.59489,74.19675c0,11.12129 -9.01503,20.13631 -20.13631,20.13631h-50.41716c-11.12095,0 -20.13631,-9.01503 -20.13631,-20.13631v-48.39368c0,-11.12095 9.01536,-20.13631 20.13631,-20.13631h50.41716c11.12129,0 20.13631,9.01536 20.13631,20.13631zM271.17069,74.19675c0,3.70709 -3.00501,6.7121 -6.7121,6.7121h-50.41716c-3.70696,0 -6.7121,-3.00501 -6.7121,-6.7121v-48.39368c0,-3.70696 3.00514,-6.7121 6.7121,-6.7121h50.41716c3.70709,0 6.7121,3.00514 6.7121,6.7121z" fill-rule="evenodd" stroke-width="1"/><path d="M206.09489,210.69693c0,11.12129 -9.01503,20.13631 -20.13631,20.13631h-5.41716c-11.12095,0 -20.13631,-9.01503 -20.13631,-20.13631v-96.89368c0,-11.12095 9.01536,-20.13631 20.13631,-20.13631h5.41716c11.12129,0 20.13631,9.01536 20.13631,20.13631zM192.67069,210.69693c0,3.70709 -3.00501,6.7121 -6.7121,6.7121h-5.41716c-3.70696,0 -6.7121,-3.00501 -6.7121,-6.7121v-96.89368c0,-3.70696 3.00514,-6.7121 6.7121,-6.7121h5.41716c3.70709,0 6.7121,3.00514 6.7121,6.7121z" fill-rule="evenodd" stroke-width="1"/><path d="M319.59489,210.69693c0,11.12129 -9.01503,20.13631 -20.13631,20.13631h-5.41716c-11.12095,0 -20.13631,-9.01503 -20.13631,-20.13631v-96.89368c0,-11.12095 9.01536,-20.13631 20.13631,-20.13631h5.41716c11.12129,0 20.13631,9.01536 20.13631,20.13631zM306.17069,210.69693c0,3.70709 -3.00501,6.7121 -6.7121,6.7121h-5.41716c-3.70696,0 -6.7121,-3.00501 -6.7121,-6.7121v-96.89368c0,-3.70696 3.00514,-6.7121 6.7121,-6.7121h5.41716c3.70709,0 6.7121,3.00514 6.7121,6.7121z" fill-rule="evenodd" stroke-width="1"/><path d="M240.27312,334.19693c0,11.12129 -9.01503,20.13631 -20.13631,20.13631h-5.41716c-11.12095,0 -20.13631,-9.01503 -20.13631,-20.13631v-96.89368c0,-11.12095 9.01536,-20.13631 20.13631,-20.13631h5.41716c11.12129,0 20.13631,9.01536 20.13631,20.13631zM226.84892,334.19693c0,3.70709 -3.00501,6.7121 -6.7121,6.7121h-5.41716c-3.70696,0 -6.7121,-3.00501 -6.7121,-6.7121v-96.89368c0,-3.70696 3.00514,-6.7121 6.7121,-6.7121h5.41716c3.70709,0 6.7121,3.00514 6.7121,6.7121z" fill-rule="evenodd" stroke-width="1"/><path d="M285.27312,334.19693c0,11.12129 -9.01503,20.13631 -20.13631,20.13631h-5.41716c-11.12095,0 -20.13631,-9.01503 -20.13631,-20.13631v-96.89368c0,-11.12095 9.01536,-20.13631 20.13631,-20.13631h5.41716c11.12129,0 20.13631,9.01536 20.13631,20.13631zM271.84892,334.19693c0,3.70709 -3.00501,6.7121 -6.7121,6.7121h-5.41716c-3.70696,0 -6.7121,-3.00501 -6.7121,-6.7121v-96.89368c0,-3.70696 3.00514,-6.7121 6.7121,-6.7121h5.41716c3.70709,0 6.7121,3.00514 6.7121,6.7121z" fill-rule="evenodd" stroke-width="1"/><path d="M243.95843,236.90101c-1.76777,1.76777 -3.53553,0 -3.53553,0l-2,-2c-1.36193,-1.3684 -2.85208,-2.61246 -4.3989,-3.76777c0,0 -2,-1.5 -0.5,-3.5c1.5,-2 3.5,-0.5 3.5,-0.5c1.73122,1.30326 3.39898,2.70319 4.93443,4.23223l2,2c0,0 1.76777,1.76777 0,3.53553z" fill-rule="nonzero" stroke-width="0.5"/></g></g></svg>