<svg version="1.1" xmlns="http://www.w3.org/2000/svg" xmlns:xlink="http://www.w3.org/1999/xlink" width="343.33333" height="343.33333" viewBox="0,0,343.33333,343.33333"><g transform="translate(-68.33334,-8.33333)"><g fill="#ffffff" stroke="none" stroke-miterlimit="10"><path d="M411.66666,304.84848c0,25.85768 -20.9605,46.81818 -46.81818,46.81818h-249.69697c-25.8569,0 -46.81818,-20.9605 -46.81818,-46.81818v-249.69697c0,-25.8569 20.96128,-46.81818 46.81818,-46.81818h249.69697c25.85768,0 46.81818,20.96128 46.81818,46.81818zM380.45454,304.84848c0,8.61923 -6.98683,15.60606 -15.60606,15.60606h-249.69697c-8.61892,0 -15.60606,-6.98683 -15.60606,-15.60606v-249.69697c0,-8.61892 6.98715,-15.60606 15.60606,-15.60606h249.69697c8.61923,0 15.60606,6.98715 15.60606,15.60606z" fill-rule="evenodd"/><path d="M127.74014,266.16262l67.34717,-123.46938c5.91501,-10.84403 21.48642,-10.84403 27.40112,0l49.44936,90.65764l16.93726,-29.63903c5.99117,-10.48415 21.1072,-10.48415 27.09836,0l35.53344,62.18235c5.94435,10.403 -1.56841,23.34823 -13.55074,23.34823h-196.51557c-11.84594,0 -19.3729,-12.67992 -13.7004,-23.0798z" fill-rule="nonzero"/><path d="M336.63636,117.57576c0,17.23799 -13.97367,31.21212 -31.21212,31.21212c-17.23845,0 -31.21212,-13.97414 -31.21212,-31.21212c0,-17.23799 13.97367,-31.21212 31.21212,-31.21212c17.23845,0 31.21212,13.97413 31.21212,31.21212z" fill-rule="nonzero"/></g></g></svg>